<mxfile host="app.diagrams.net" modified="2022-10-06T13:27:47.655Z" agent="5.0 (Windows NT 10.0; Win64; x64) AppleWebKit/537.36 (KHTML, like Gecko) Chrome/106.0.0.0 Safari/537.36" etag="W8zlqB9vXoXnDbIrmXEi" version="20.4.0" type="github">
  <diagram id="1UIdm6wSg0rmOzabhbsE" name="Sayfa -1">
    <mxGraphModel dx="1038" dy="521" grid="1" gridSize="10" guides="1" tooltips="1" connect="1" arrows="1" fold="1" page="1" pageScale="1" pageWidth="827" pageHeight="1169" math="0" shadow="0">
      <root>
        <mxCell id="0" />
        <mxCell id="1" parent="0" />
        <mxCell id="bMcZdyThbotbBNFt_xRl-16" value="" style="edgeStyle=orthogonalEdgeStyle;rounded=0;orthogonalLoop=1;jettySize=auto;html=1;" edge="1" parent="1" source="bMcZdyThbotbBNFt_xRl-1" target="bMcZdyThbotbBNFt_xRl-2">
          <mxGeometry relative="1" as="geometry" />
        </mxCell>
        <mxCell id="bMcZdyThbotbBNFt_xRl-1" value="Start" style="ellipse;whiteSpace=wrap;html=1;" vertex="1" parent="1">
          <mxGeometry x="310" y="20" width="100" height="50" as="geometry" />
        </mxCell>
        <mxCell id="bMcZdyThbotbBNFt_xRl-14" value="" style="edgeStyle=orthogonalEdgeStyle;rounded=0;orthogonalLoop=1;jettySize=auto;html=1;" edge="1" parent="1" source="bMcZdyThbotbBNFt_xRl-2" target="bMcZdyThbotbBNFt_xRl-13">
          <mxGeometry relative="1" as="geometry" />
        </mxCell>
        <mxCell id="bMcZdyThbotbBNFt_xRl-2" value="a,b,&lt;br&gt;fib ;" style="shape=parallelogram;perimeter=parallelogramPerimeter;whiteSpace=wrap;html=1;fixedSize=1;" vertex="1" parent="1">
          <mxGeometry x="315" y="90" width="105" height="50" as="geometry" />
        </mxCell>
        <mxCell id="bMcZdyThbotbBNFt_xRl-8" style="edgeStyle=orthogonalEdgeStyle;rounded=0;orthogonalLoop=1;jettySize=auto;html=1;entryX=0;entryY=0.5;entryDx=0;entryDy=0;" edge="1" parent="1" source="bMcZdyThbotbBNFt_xRl-3" target="bMcZdyThbotbBNFt_xRl-4">
          <mxGeometry relative="1" as="geometry">
            <mxPoint x="430" y="400" as="targetPoint" />
          </mxGeometry>
        </mxCell>
        <mxCell id="bMcZdyThbotbBNFt_xRl-3" value="fib = a + b;&lt;br&gt;a = b;&lt;br&gt;b = fib;" style="rounded=0;whiteSpace=wrap;html=1;" vertex="1" parent="1">
          <mxGeometry x="390" y="430" width="120" height="60" as="geometry" />
        </mxCell>
        <mxCell id="bMcZdyThbotbBNFt_xRl-7" value="" style="edgeStyle=orthogonalEdgeStyle;rounded=0;orthogonalLoop=1;jettySize=auto;html=1;" edge="1" parent="1" source="bMcZdyThbotbBNFt_xRl-4" target="bMcZdyThbotbBNFt_xRl-3">
          <mxGeometry relative="1" as="geometry" />
        </mxCell>
        <mxCell id="bMcZdyThbotbBNFt_xRl-10" style="edgeStyle=orthogonalEdgeStyle;rounded=0;orthogonalLoop=1;jettySize=auto;html=1;exitX=0;exitY=0.25;exitDx=0;exitDy=0;" edge="1" parent="1" source="bMcZdyThbotbBNFt_xRl-4" target="bMcZdyThbotbBNFt_xRl-9">
          <mxGeometry relative="1" as="geometry" />
        </mxCell>
        <mxCell id="bMcZdyThbotbBNFt_xRl-4" value="fib &amp;lt; 1000" style="shape=hexagon;perimeter=hexagonPerimeter2;whiteSpace=wrap;html=1;fixedSize=1;" vertex="1" parent="1">
          <mxGeometry x="270" y="350" width="100" height="60" as="geometry" />
        </mxCell>
        <mxCell id="bMcZdyThbotbBNFt_xRl-12" value="" style="edgeStyle=orthogonalEdgeStyle;rounded=0;orthogonalLoop=1;jettySize=auto;html=1;" edge="1" parent="1" source="bMcZdyThbotbBNFt_xRl-9" target="bMcZdyThbotbBNFt_xRl-11">
          <mxGeometry relative="1" as="geometry" />
        </mxCell>
        <mxCell id="bMcZdyThbotbBNFt_xRl-9" value="fib" style="shape=document;whiteSpace=wrap;html=1;boundedLbl=1;" vertex="1" parent="1">
          <mxGeometry x="60" y="360" width="120" height="80" as="geometry" />
        </mxCell>
        <mxCell id="bMcZdyThbotbBNFt_xRl-11" value="end" style="ellipse;whiteSpace=wrap;html=1;" vertex="1" parent="1">
          <mxGeometry x="65" y="490" width="110" height="40" as="geometry" />
        </mxCell>
        <mxCell id="bMcZdyThbotbBNFt_xRl-17" value="" style="edgeStyle=orthogonalEdgeStyle;rounded=0;orthogonalLoop=1;jettySize=auto;html=1;" edge="1" parent="1" source="bMcZdyThbotbBNFt_xRl-13">
          <mxGeometry relative="1" as="geometry">
            <mxPoint x="320" y="340" as="targetPoint" />
          </mxGeometry>
        </mxCell>
        <mxCell id="bMcZdyThbotbBNFt_xRl-13" value="a = 0, b = 1, fib = 1;" style="rounded=0;whiteSpace=wrap;html=1;" vertex="1" parent="1">
          <mxGeometry x="370" y="200" width="120" height="60" as="geometry" />
        </mxCell>
        <mxCell id="bMcZdyThbotbBNFt_xRl-18" value="True" style="text;html=1;align=center;verticalAlign=middle;resizable=0;points=[];autosize=1;strokeColor=none;fillColor=none;" vertex="1" parent="1">
          <mxGeometry x="364" y="360" width="50" height="30" as="geometry" />
        </mxCell>
        <mxCell id="bMcZdyThbotbBNFt_xRl-19" value="False" style="text;html=1;align=center;verticalAlign=middle;resizable=0;points=[];autosize=1;strokeColor=none;fillColor=none;" vertex="1" parent="1">
          <mxGeometry x="220" y="345" width="50" height="30" as="geometry" />
        </mxCell>
      </root>
    </mxGraphModel>
  </diagram>
</mxfile>
